<?xml version="1.0" encoding="utf-8" standalone="no"?>
<!DOCTYPE svg PUBLIC "-//W3C//DTD SVG 1.1//EN"
  "http://www.w3.org/Graphics/SVG/1.1/DTD/svg11.dtd">
<svg xmlns:xlink="http://www.w3.org/1999/xlink" width="647.366827pt" height="476.109375pt" viewBox="0 0 647.366827 476.109375" xmlns="http://www.w3.org/2000/svg" version="1.1">
 <metadata>
  <rdf:RDF xmlns:dc="http://purl.org/dc/elements/1.1/" xmlns:cc="http://creativecommons.org/ns#" xmlns:rdf="http://www.w3.org/1999/02/22-rdf-syntax-ns#">
   <cc:Work>
    <dc:type rdf:resource="http://purl.org/dc/dcmitype/StillImage"/>
    <dc:date>2024-12-24T17:28:41.861916</dc:date>
    <dc:format>image/svg+xml</dc:format>
    <dc:creator>
     <cc:Agent>
      <dc:title>Matplotlib v3.7.5, https://matplotlib.org/</dc:title>
     </cc:Agent>
    </dc:creator>
   </cc:Work>
  </rdf:RDF>
 </metadata>
 <defs>
  <style type="text/css">*{stroke-linejoin: round; stroke-linecap: butt}</style>
 </defs>
 <g id="figure_1">
  <g id="patch_1">
   <path d="M 0 476.109375 
L 647.366827 476.109375 
L 647.366827 0 
L 0 0 
z
" style="fill: #ffffff"/>
  </g>
  <g id="axes_1">
   <g id="patch_2">
    <path d="M 75.04375 417.945 
L 633.04375 417.945 
L 633.04375 29.865 
L 75.04375 29.865 
z
" style="fill: #ffffff"/>
   </g>
   <g id="matplotlib.axis_1">
    <g id="xtick_1">
     <g id="line2d_1">
      <path d="M 99.887107 417.945 
L 99.887107 29.865 
" clip-path="url(#p4f877a7fa9)" style="fill: none; stroke-dasharray: 2.96,1.28; stroke-dashoffset: 0; stroke: #d3d3d3; stroke-width: 0.8"/>
     </g>
     <g id="line2d_2">
      <defs>
       <path id="md6b848ce3b" d="M 0 0 
L 0 3.5 
" style="stroke: #000000; stroke-width: 0.8"/>
      </defs>
      <g>
       <use xlink:href="#md6b848ce3b" x="99.887107" y="417.945" style="stroke: #000000; stroke-width: 0.8"/>
      </g>
     </g>
     <g id="text_1">
      <!-- 0 -->
      <g transform="translate(94.887107 438.8325) scale(0.2 -0.2)">
       <defs>
        <path id="TimesNewRomanPSMT-30" d="M 231 2094 
Q 231 2819 450 3342 
Q 669 3866 1031 4122 
Q 1313 4325 1613 4325 
Q 2100 4325 2488 3828 
Q 2972 3213 2972 2159 
Q 2972 1422 2759 906 
Q 2547 391 2217 158 
Q 1888 -75 1581 -75 
Q 975 -75 572 641 
Q 231 1244 231 2094 
z
M 844 2016 
Q 844 1141 1059 588 
Q 1238 122 1591 122 
Q 1759 122 1940 273 
Q 2122 425 2216 781 
Q 2359 1319 2359 2297 
Q 2359 3022 2209 3506 
Q 2097 3866 1919 4016 
Q 1791 4119 1609 4119 
Q 1397 4119 1231 3928 
Q 1006 3669 925 3112 
Q 844 2556 844 2016 
z
" transform="scale(0.015625)"/>
       </defs>
       <use xlink:href="#TimesNewRomanPSMT-30"/>
      </g>
     </g>
    </g>
    <g id="xtick_2">
     <g id="line2d_3">
      <path d="M 203.943051 417.945 
L 203.943051 29.865 
" clip-path="url(#p4f877a7fa9)" style="fill: none; stroke-dasharray: 2.96,1.28; stroke-dashoffset: 0; stroke: #d3d3d3; stroke-width: 0.8"/>
     </g>
     <g id="line2d_4">
      <g>
       <use xlink:href="#md6b848ce3b" x="203.943051" y="417.945" style="stroke: #000000; stroke-width: 0.8"/>
      </g>
     </g>
     <g id="text_2">
      <!-- 200 -->
      <g transform="translate(188.943051 438.8325) scale(0.2 -0.2)">
       <defs>
        <path id="TimesNewRomanPSMT-32" d="M 2934 816 
L 2638 0 
L 138 0 
L 138 116 
Q 1241 1122 1691 1759 
Q 2141 2397 2141 2925 
Q 2141 3328 1894 3587 
Q 1647 3847 1303 3847 
Q 991 3847 742 3664 
Q 494 3481 375 3128 
L 259 3128 
Q 338 3706 661 4015 
Q 984 4325 1469 4325 
Q 1984 4325 2329 3994 
Q 2675 3663 2675 3213 
Q 2675 2891 2525 2569 
Q 2294 2063 1775 1497 
Q 997 647 803 472 
L 1909 472 
Q 2247 472 2383 497 
Q 2519 522 2628 598 
Q 2738 675 2819 816 
L 2934 816 
z
" transform="scale(0.015625)"/>
       </defs>
       <use xlink:href="#TimesNewRomanPSMT-32"/>
       <use xlink:href="#TimesNewRomanPSMT-30" x="50"/>
       <use xlink:href="#TimesNewRomanPSMT-30" x="100"/>
      </g>
     </g>
    </g>
    <g id="xtick_3">
     <g id="line2d_5">
      <path d="M 307.998995 417.945 
L 307.998995 29.865 
" clip-path="url(#p4f877a7fa9)" style="fill: none; stroke-dasharray: 2.96,1.28; stroke-dashoffset: 0; stroke: #d3d3d3; stroke-width: 0.8"/>
     </g>
     <g id="line2d_6">
      <g>
       <use xlink:href="#md6b848ce3b" x="307.998995" y="417.945" style="stroke: #000000; stroke-width: 0.8"/>
      </g>
     </g>
     <g id="text_3">
      <!-- 400 -->
      <g transform="translate(292.998995 438.8325) scale(0.2 -0.2)">
       <defs>
        <path id="TimesNewRomanPSMT-34" d="M 2978 1563 
L 2978 1119 
L 2409 1119 
L 2409 0 
L 1894 0 
L 1894 1119 
L 100 1119 
L 100 1519 
L 2066 4325 
L 2409 4325 
L 2409 1563 
L 2978 1563 
z
M 1894 1563 
L 1894 3666 
L 406 1563 
L 1894 1563 
z
" transform="scale(0.015625)"/>
       </defs>
       <use xlink:href="#TimesNewRomanPSMT-34"/>
       <use xlink:href="#TimesNewRomanPSMT-30" x="50"/>
       <use xlink:href="#TimesNewRomanPSMT-30" x="100"/>
      </g>
     </g>
    </g>
    <g id="xtick_4">
     <g id="line2d_7">
      <path d="M 412.054939 417.945 
L 412.054939 29.865 
" clip-path="url(#p4f877a7fa9)" style="fill: none; stroke-dasharray: 2.96,1.28; stroke-dashoffset: 0; stroke: #d3d3d3; stroke-width: 0.8"/>
     </g>
     <g id="line2d_8">
      <g>
       <use xlink:href="#md6b848ce3b" x="412.054939" y="417.945" style="stroke: #000000; stroke-width: 0.8"/>
      </g>
     </g>
     <g id="text_4">
      <!-- 600 -->
      <g transform="translate(397.054939 438.8325) scale(0.2 -0.2)">
       <defs>
        <path id="TimesNewRomanPSMT-36" d="M 2869 4325 
L 2869 4209 
Q 2456 4169 2195 4045 
Q 1934 3922 1679 3669 
Q 1425 3416 1258 3105 
Q 1091 2794 978 2366 
Q 1428 2675 1881 2675 
Q 2316 2675 2634 2325 
Q 2953 1975 2953 1425 
Q 2953 894 2631 456 
Q 2244 -75 1606 -75 
Q 1172 -75 869 213 
Q 275 772 275 1663 
Q 275 2231 503 2743 
Q 731 3256 1154 3653 
Q 1578 4050 1965 4187 
Q 2353 4325 2688 4325 
L 2869 4325 
z
M 925 2138 
Q 869 1716 869 1456 
Q 869 1156 980 804 
Q 1091 453 1309 247 
Q 1469 100 1697 100 
Q 1969 100 2183 356 
Q 2397 613 2397 1088 
Q 2397 1622 2184 2012 
Q 1972 2403 1581 2403 
Q 1463 2403 1327 2353 
Q 1191 2303 925 2138 
z
" transform="scale(0.015625)"/>
       </defs>
       <use xlink:href="#TimesNewRomanPSMT-36"/>
       <use xlink:href="#TimesNewRomanPSMT-30" x="50"/>
       <use xlink:href="#TimesNewRomanPSMT-30" x="100"/>
      </g>
     </g>
    </g>
    <g id="xtick_5">
     <g id="line2d_9">
      <path d="M 516.110883 417.945 
L 516.110883 29.865 
" clip-path="url(#p4f877a7fa9)" style="fill: none; stroke-dasharray: 2.96,1.28; stroke-dashoffset: 0; stroke: #d3d3d3; stroke-width: 0.8"/>
     </g>
     <g id="line2d_10">
      <g>
       <use xlink:href="#md6b848ce3b" x="516.110883" y="417.945" style="stroke: #000000; stroke-width: 0.8"/>
      </g>
     </g>
     <g id="text_5">
      <!-- 800 -->
      <g transform="translate(501.110883 438.8325) scale(0.2 -0.2)">
       <defs>
        <path id="TimesNewRomanPSMT-38" d="M 1228 2134 
Q 725 2547 579 2797 
Q 434 3047 434 3316 
Q 434 3728 753 4026 
Q 1072 4325 1600 4325 
Q 2113 4325 2425 4047 
Q 2738 3769 2738 3413 
Q 2738 3175 2569 2928 
Q 2400 2681 1866 2347 
Q 2416 1922 2594 1678 
Q 2831 1359 2831 1006 
Q 2831 559 2490 242 
Q 2150 -75 1597 -75 
Q 994 -75 656 303 
Q 388 606 388 966 
Q 388 1247 577 1523 
Q 766 1800 1228 2134 
z
M 1719 2469 
Q 2094 2806 2194 3001 
Q 2294 3197 2294 3444 
Q 2294 3772 2109 3958 
Q 1925 4144 1606 4144 
Q 1288 4144 1088 3959 
Q 888 3775 888 3528 
Q 888 3366 970 3203 
Q 1053 3041 1206 2894 
L 1719 2469 
z
M 1375 2016 
Q 1116 1797 991 1539 
Q 866 1281 866 981 
Q 866 578 1086 336 
Q 1306 94 1647 94 
Q 1984 94 2187 284 
Q 2391 475 2391 747 
Q 2391 972 2272 1150 
Q 2050 1481 1375 2016 
z
" transform="scale(0.015625)"/>
       </defs>
       <use xlink:href="#TimesNewRomanPSMT-38"/>
       <use xlink:href="#TimesNewRomanPSMT-30" x="50"/>
       <use xlink:href="#TimesNewRomanPSMT-30" x="100"/>
      </g>
     </g>
    </g>
    <g id="xtick_6">
     <g id="line2d_11">
      <path d="M 620.166827 417.945 
L 620.166827 29.865 
" clip-path="url(#p4f877a7fa9)" style="fill: none; stroke-dasharray: 2.96,1.28; stroke-dashoffset: 0; stroke: #d3d3d3; stroke-width: 0.8"/>
     </g>
     <g id="line2d_12">
      <g>
       <use xlink:href="#md6b848ce3b" x="620.166827" y="417.945" style="stroke: #000000; stroke-width: 0.8"/>
      </g>
     </g>
     <g id="text_6">
      <!-- 1000 -->
      <g transform="translate(600.166827 438.8325) scale(0.2 -0.2)">
       <defs>
        <path id="TimesNewRomanPSMT-31" d="M 750 3822 
L 1781 4325 
L 1884 4325 
L 1884 747 
Q 1884 391 1914 303 
Q 1944 216 2037 169 
Q 2131 122 2419 116 
L 2419 0 
L 825 0 
L 825 116 
Q 1125 122 1212 167 
Q 1300 213 1334 289 
Q 1369 366 1369 747 
L 1369 3034 
Q 1369 3497 1338 3628 
Q 1316 3728 1258 3775 
Q 1200 3822 1119 3822 
Q 1003 3822 797 3725 
L 750 3822 
z
" transform="scale(0.015625)"/>
       </defs>
       <use xlink:href="#TimesNewRomanPSMT-31"/>
       <use xlink:href="#TimesNewRomanPSMT-30" x="50"/>
       <use xlink:href="#TimesNewRomanPSMT-30" x="100"/>
       <use xlink:href="#TimesNewRomanPSMT-30" x="150"/>
      </g>
     </g>
    </g>
    <g id="text_7">
     <!-- Epoch -->
     <g transform="translate(323.3875 463.775625) scale(0.24 -0.24)">
      <defs>
       <path id="TimesNewRomanPSMT-45" d="M 1338 4006 
L 1338 2331 
L 2269 2331 
Q 2631 2331 2753 2441 
Q 2916 2584 2934 2947 
L 3050 2947 
L 3050 1472 
L 2934 1472 
Q 2891 1781 2847 1869 
Q 2791 1978 2662 2040 
Q 2534 2103 2269 2103 
L 1338 2103 
L 1338 706 
Q 1338 425 1363 364 
Q 1388 303 1450 267 
Q 1513 231 1688 231 
L 2406 231 
Q 2766 231 2928 281 
Q 3091 331 3241 478 
Q 3434 672 3638 1063 
L 3763 1063 
L 3397 0 
L 131 0 
L 131 116 
L 281 116 
Q 431 116 566 188 
Q 666 238 702 338 
Q 738 438 738 747 
L 738 3500 
Q 738 3903 656 3997 
Q 544 4122 281 4122 
L 131 4122 
L 131 4238 
L 3397 4238 
L 3444 3309 
L 3322 3309 
Q 3256 3644 3176 3769 
Q 3097 3894 2941 3959 
Q 2816 4006 2500 4006 
L 1338 4006 
z
" transform="scale(0.015625)"/>
       <path id="TimesNewRomanPSMT-70" d="M -6 2578 
L 875 2934 
L 994 2934 
L 994 2266 
Q 1216 2644 1439 2795 
Q 1663 2947 1909 2947 
Q 2341 2947 2628 2609 
Q 2981 2197 2981 1534 
Q 2981 794 2556 309 
Q 2206 -88 1675 -88 
Q 1444 -88 1275 -22 
Q 1150 25 994 166 
L 994 -706 
Q 994 -1000 1030 -1079 
Q 1066 -1159 1155 -1206 
Q 1244 -1253 1478 -1253 
L 1478 -1369 
L -22 -1369 
L -22 -1253 
L 56 -1253 
Q 228 -1256 350 -1188 
Q 409 -1153 442 -1076 
Q 475 -1000 475 -688 
L 475 2019 
Q 475 2297 450 2372 
Q 425 2447 370 2484 
Q 316 2522 222 2522 
Q 147 2522 31 2478 
L -6 2578 
z
M 994 2081 
L 994 1013 
Q 994 666 1022 556 
Q 1066 375 1236 237 
Q 1406 100 1666 100 
Q 1978 100 2172 344 
Q 2425 663 2425 1241 
Q 2425 1897 2138 2250 
Q 1938 2494 1663 2494 
Q 1513 2494 1366 2419 
Q 1253 2363 994 2081 
z
" transform="scale(0.015625)"/>
       <path id="TimesNewRomanPSMT-6f" d="M 1600 2947 
Q 2250 2947 2644 2453 
Q 2978 2031 2978 1484 
Q 2978 1100 2793 706 
Q 2609 313 2286 112 
Q 1963 -88 1566 -88 
Q 919 -88 538 428 
Q 216 863 216 1403 
Q 216 1797 411 2186 
Q 606 2575 925 2761 
Q 1244 2947 1600 2947 
z
M 1503 2744 
Q 1338 2744 1170 2645 
Q 1003 2547 900 2300 
Q 797 2053 797 1666 
Q 797 1041 1045 587 
Q 1294 134 1700 134 
Q 2003 134 2200 384 
Q 2397 634 2397 1244 
Q 2397 2006 2069 2444 
Q 1847 2744 1503 2744 
z
" transform="scale(0.015625)"/>
       <path id="TimesNewRomanPSMT-63" d="M 2631 1088 
Q 2516 522 2178 217 
Q 1841 -88 1431 -88 
Q 944 -88 581 321 
Q 219 731 219 1428 
Q 219 2103 620 2525 
Q 1022 2947 1584 2947 
Q 2006 2947 2278 2723 
Q 2550 2500 2550 2259 
Q 2550 2141 2473 2067 
Q 2397 1994 2259 1994 
Q 2075 1994 1981 2113 
Q 1928 2178 1911 2362 
Q 1894 2547 1784 2644 
Q 1675 2738 1481 2738 
Q 1169 2738 978 2506 
Q 725 2200 725 1697 
Q 725 1184 976 792 
Q 1228 400 1656 400 
Q 1963 400 2206 609 
Q 2378 753 2541 1131 
L 2631 1088 
z
" transform="scale(0.015625)"/>
       <path id="TimesNewRomanPSMT-68" d="M 1041 4444 
L 1041 2350 
Q 1388 2731 1591 2839 
Q 1794 2947 1997 2947 
Q 2241 2947 2416 2812 
Q 2591 2678 2675 2391 
Q 2734 2191 2734 1659 
L 2734 647 
Q 2734 375 2778 275 
Q 2809 200 2884 156 
Q 2959 113 3159 113 
L 3159 0 
L 1753 0 
L 1753 113 
L 1819 113 
Q 2019 113 2097 173 
Q 2175 234 2206 353 
Q 2216 403 2216 647 
L 2216 1659 
Q 2216 2128 2167 2275 
Q 2119 2422 2012 2495 
Q 1906 2569 1756 2569 
Q 1603 2569 1437 2487 
Q 1272 2406 1041 2159 
L 1041 647 
Q 1041 353 1073 281 
Q 1106 209 1195 161 
Q 1284 113 1503 113 
L 1503 0 
L 84 0 
L 84 113 
Q 275 113 384 172 
Q 447 203 484 290 
Q 522 378 522 647 
L 522 3238 
Q 522 3728 498 3840 
Q 475 3953 426 3993 
Q 378 4034 297 4034 
Q 231 4034 84 3984 
L 41 4094 
L 897 4444 
L 1041 4444 
z
" transform="scale(0.015625)"/>
      </defs>
      <use xlink:href="#TimesNewRomanPSMT-45"/>
      <use xlink:href="#TimesNewRomanPSMT-70" x="61.083984"/>
      <use xlink:href="#TimesNewRomanPSMT-6f" x="111.083984"/>
      <use xlink:href="#TimesNewRomanPSMT-63" x="161.083984"/>
      <use xlink:href="#TimesNewRomanPSMT-68" x="205.46875"/>
     </g>
    </g>
   </g>
   <g id="matplotlib.axis_2">
    <g id="ytick_1">
     <g id="line2d_13">
      <path d="M 75.04375 400.305001 
L 633.04375 400.305001 
" clip-path="url(#p4f877a7fa9)" style="fill: none; stroke-dasharray: 2.96,1.28; stroke-dashoffset: 0; stroke: #d3d3d3; stroke-width: 0.8"/>
     </g>
     <g id="line2d_14">
      <defs>
       <path id="m068593c1fe" d="M 0 0 
L -3.5 0 
" style="stroke: #000000; stroke-width: 0.8"/>
      </defs>
      <g>
       <use xlink:href="#m068593c1fe" x="75.04375" y="400.305001" style="stroke: #000000; stroke-width: 0.8"/>
      </g>
     </g>
     <g id="text_8">
      <!-- 0.00 -->
      <g transform="translate(33.04375 407.248751) scale(0.2 -0.2)">
       <defs>
        <path id="TimesNewRomanPSMT-2e" d="M 800 606 
Q 947 606 1047 504 
Q 1147 403 1147 259 
Q 1147 116 1045 14 
Q 944 -88 800 -88 
Q 656 -88 554 14 
Q 453 116 453 259 
Q 453 406 554 506 
Q 656 606 800 606 
z
" transform="scale(0.015625)"/>
       </defs>
       <use xlink:href="#TimesNewRomanPSMT-30"/>
       <use xlink:href="#TimesNewRomanPSMT-2e" x="50"/>
       <use xlink:href="#TimesNewRomanPSMT-30" x="75"/>
       <use xlink:href="#TimesNewRomanPSMT-30" x="125"/>
      </g>
     </g>
    </g>
    <g id="ytick_2">
     <g id="line2d_15">
      <path d="M 75.04375 351.143733 
L 633.04375 351.143733 
" clip-path="url(#p4f877a7fa9)" style="fill: none; stroke-dasharray: 2.96,1.28; stroke-dashoffset: 0; stroke: #d3d3d3; stroke-width: 0.8"/>
     </g>
     <g id="line2d_16">
      <g>
       <use xlink:href="#m068593c1fe" x="75.04375" y="351.143733" style="stroke: #000000; stroke-width: 0.8"/>
      </g>
     </g>
     <g id="text_9">
      <!-- 0.25 -->
      <g transform="translate(33.04375 358.087483) scale(0.2 -0.2)">
       <defs>
        <path id="TimesNewRomanPSMT-35" d="M 2778 4238 
L 2534 3706 
L 1259 3706 
L 981 3138 
Q 1809 3016 2294 2522 
Q 2709 2097 2709 1522 
Q 2709 1188 2573 903 
Q 2438 619 2231 419 
Q 2025 219 1772 97 
Q 1413 -75 1034 -75 
Q 653 -75 479 54 
Q 306 184 306 341 
Q 306 428 378 495 
Q 450 563 559 563 
Q 641 563 702 538 
Q 763 513 909 409 
Q 1144 247 1384 247 
Q 1750 247 2026 523 
Q 2303 800 2303 1197 
Q 2303 1581 2056 1914 
Q 1809 2247 1375 2428 
Q 1034 2569 447 2591 
L 1259 4238 
L 2778 4238 
z
" transform="scale(0.015625)"/>
       </defs>
       <use xlink:href="#TimesNewRomanPSMT-30"/>
       <use xlink:href="#TimesNewRomanPSMT-2e" x="50"/>
       <use xlink:href="#TimesNewRomanPSMT-32" x="75"/>
       <use xlink:href="#TimesNewRomanPSMT-35" x="125"/>
      </g>
     </g>
    </g>
    <g id="ytick_3">
     <g id="line2d_17">
      <path d="M 75.04375 301.982465 
L 633.04375 301.982465 
" clip-path="url(#p4f877a7fa9)" style="fill: none; stroke-dasharray: 2.96,1.28; stroke-dashoffset: 0; stroke: #d3d3d3; stroke-width: 0.8"/>
     </g>
     <g id="line2d_18">
      <g>
       <use xlink:href="#m068593c1fe" x="75.04375" y="301.982465" style="stroke: #000000; stroke-width: 0.8"/>
      </g>
     </g>
     <g id="text_10">
      <!-- 0.50 -->
      <g transform="translate(33.04375 308.926215) scale(0.2 -0.2)">
       <use xlink:href="#TimesNewRomanPSMT-30"/>
       <use xlink:href="#TimesNewRomanPSMT-2e" x="50"/>
       <use xlink:href="#TimesNewRomanPSMT-35" x="75"/>
       <use xlink:href="#TimesNewRomanPSMT-30" x="125"/>
      </g>
     </g>
    </g>
    <g id="ytick_4">
     <g id="line2d_19">
      <path d="M 75.04375 252.821197 
L 633.04375 252.821197 
" clip-path="url(#p4f877a7fa9)" style="fill: none; stroke-dasharray: 2.96,1.28; stroke-dashoffset: 0; stroke: #d3d3d3; stroke-width: 0.8"/>
     </g>
     <g id="line2d_20">
      <g>
       <use xlink:href="#m068593c1fe" x="75.04375" y="252.821197" style="stroke: #000000; stroke-width: 0.8"/>
      </g>
     </g>
     <g id="text_11">
      <!-- 0.75 -->
      <g transform="translate(33.04375 259.764947) scale(0.2 -0.2)">
       <defs>
        <path id="TimesNewRomanPSMT-37" d="M 644 4238 
L 2916 4238 
L 2916 4119 
L 1503 -88 
L 1153 -88 
L 2419 3728 
L 1253 3728 
Q 900 3728 750 3644 
Q 488 3500 328 3200 
L 238 3234 
L 644 4238 
z
" transform="scale(0.015625)"/>
       </defs>
       <use xlink:href="#TimesNewRomanPSMT-30"/>
       <use xlink:href="#TimesNewRomanPSMT-2e" x="50"/>
       <use xlink:href="#TimesNewRomanPSMT-37" x="75"/>
       <use xlink:href="#TimesNewRomanPSMT-35" x="125"/>
      </g>
     </g>
    </g>
    <g id="ytick_5">
     <g id="line2d_21">
      <path d="M 75.04375 203.659929 
L 633.04375 203.659929 
" clip-path="url(#p4f877a7fa9)" style="fill: none; stroke-dasharray: 2.96,1.28; stroke-dashoffset: 0; stroke: #d3d3d3; stroke-width: 0.8"/>
     </g>
     <g id="line2d_22">
      <g>
       <use xlink:href="#m068593c1fe" x="75.04375" y="203.659929" style="stroke: #000000; stroke-width: 0.8"/>
      </g>
     </g>
     <g id="text_12">
      <!-- 1.00 -->
      <g transform="translate(33.04375 210.603679) scale(0.2 -0.2)">
       <use xlink:href="#TimesNewRomanPSMT-31"/>
       <use xlink:href="#TimesNewRomanPSMT-2e" x="50"/>
       <use xlink:href="#TimesNewRomanPSMT-30" x="75"/>
       <use xlink:href="#TimesNewRomanPSMT-30" x="125"/>
      </g>
     </g>
    </g>
    <g id="ytick_6">
     <g id="line2d_23">
      <path d="M 75.04375 154.498661 
L 633.04375 154.498661 
" clip-path="url(#p4f877a7fa9)" style="fill: none; stroke-dasharray: 2.96,1.28; stroke-dashoffset: 0; stroke: #d3d3d3; stroke-width: 0.8"/>
     </g>
     <g id="line2d_24">
      <g>
       <use xlink:href="#m068593c1fe" x="75.04375" y="154.498661" style="stroke: #000000; stroke-width: 0.8"/>
      </g>
     </g>
     <g id="text_13">
      <!-- 1.25 -->
      <g transform="translate(33.04375 161.442411) scale(0.2 -0.2)">
       <use xlink:href="#TimesNewRomanPSMT-31"/>
       <use xlink:href="#TimesNewRomanPSMT-2e" x="50"/>
       <use xlink:href="#TimesNewRomanPSMT-32" x="75"/>
       <use xlink:href="#TimesNewRomanPSMT-35" x="125"/>
      </g>
     </g>
    </g>
    <g id="ytick_7">
     <g id="line2d_25">
      <path d="M 75.04375 105.337393 
L 633.04375 105.337393 
" clip-path="url(#p4f877a7fa9)" style="fill: none; stroke-dasharray: 2.96,1.28; stroke-dashoffset: 0; stroke: #d3d3d3; stroke-width: 0.8"/>
     </g>
     <g id="line2d_26">
      <g>
       <use xlink:href="#m068593c1fe" x="75.04375" y="105.337393" style="stroke: #000000; stroke-width: 0.8"/>
      </g>
     </g>
     <g id="text_14">
      <!-- 1.50 -->
      <g transform="translate(33.04375 112.281143) scale(0.2 -0.2)">
       <use xlink:href="#TimesNewRomanPSMT-31"/>
       <use xlink:href="#TimesNewRomanPSMT-2e" x="50"/>
       <use xlink:href="#TimesNewRomanPSMT-35" x="75"/>
       <use xlink:href="#TimesNewRomanPSMT-30" x="125"/>
      </g>
     </g>
    </g>
    <g id="ytick_8">
     <g id="line2d_27">
      <path d="M 75.04375 56.176125 
L 633.04375 56.176125 
" clip-path="url(#p4f877a7fa9)" style="fill: none; stroke-dasharray: 2.96,1.28; stroke-dashoffset: 0; stroke: #d3d3d3; stroke-width: 0.8"/>
     </g>
     <g id="line2d_28">
      <g>
       <use xlink:href="#m068593c1fe" x="75.04375" y="56.176125" style="stroke: #000000; stroke-width: 0.8"/>
      </g>
     </g>
     <g id="text_15">
      <!-- 1.75 -->
      <g transform="translate(33.04375 63.119875) scale(0.2 -0.2)">
       <use xlink:href="#TimesNewRomanPSMT-31"/>
       <use xlink:href="#TimesNewRomanPSMT-2e" x="50"/>
       <use xlink:href="#TimesNewRomanPSMT-37" x="75"/>
       <use xlink:href="#TimesNewRomanPSMT-35" x="125"/>
      </g>
     </g>
    </g>
    <g id="text_16">
     <!-- Training Loss -->
     <g transform="translate(23.865 290.475) rotate(-90) scale(0.24 -0.24)">
      <defs>
       <path id="TimesNewRomanPSMT-54" d="M 3703 4238 
L 3750 3244 
L 3631 3244 
Q 3597 3506 3538 3619 
Q 3441 3800 3280 3886 
Q 3119 3972 2856 3972 
L 2259 3972 
L 2259 734 
Q 2259 344 2344 247 
Q 2463 116 2709 116 
L 2856 116 
L 2856 0 
L 1059 0 
L 1059 116 
L 1209 116 
Q 1478 116 1591 278 
Q 1659 378 1659 734 
L 1659 3972 
L 1150 3972 
Q 853 3972 728 3928 
Q 566 3869 450 3700 
Q 334 3531 313 3244 
L 194 3244 
L 244 4238 
L 3703 4238 
z
" transform="scale(0.015625)"/>
       <path id="TimesNewRomanPSMT-72" d="M 1038 2947 
L 1038 2303 
Q 1397 2947 1775 2947 
Q 1947 2947 2059 2842 
Q 2172 2738 2172 2600 
Q 2172 2478 2090 2393 
Q 2009 2309 1897 2309 
Q 1788 2309 1652 2417 
Q 1516 2525 1450 2525 
Q 1394 2525 1328 2463 
Q 1188 2334 1038 2041 
L 1038 669 
Q 1038 431 1097 309 
Q 1138 225 1241 169 
Q 1344 113 1538 113 
L 1538 0 
L 72 0 
L 72 113 
Q 291 113 397 181 
Q 475 231 506 341 
Q 522 394 522 644 
L 522 1753 
Q 522 2253 501 2348 
Q 481 2444 426 2487 
Q 372 2531 291 2531 
Q 194 2531 72 2484 
L 41 2597 
L 906 2947 
L 1038 2947 
z
" transform="scale(0.015625)"/>
       <path id="TimesNewRomanPSMT-61" d="M 1822 413 
Q 1381 72 1269 19 
Q 1100 -59 909 -59 
Q 613 -59 420 144 
Q 228 347 228 678 
Q 228 888 322 1041 
Q 450 1253 767 1440 
Q 1084 1628 1822 1897 
L 1822 2009 
Q 1822 2438 1686 2597 
Q 1550 2756 1291 2756 
Q 1094 2756 978 2650 
Q 859 2544 859 2406 
L 866 2225 
Q 866 2081 792 2003 
Q 719 1925 600 1925 
Q 484 1925 411 2006 
Q 338 2088 338 2228 
Q 338 2497 613 2722 
Q 888 2947 1384 2947 
Q 1766 2947 2009 2819 
Q 2194 2722 2281 2516 
Q 2338 2381 2338 1966 
L 2338 994 
Q 2338 584 2353 492 
Q 2369 400 2405 369 
Q 2441 338 2488 338 
Q 2538 338 2575 359 
Q 2641 400 2828 588 
L 2828 413 
Q 2478 -56 2159 -56 
Q 2006 -56 1915 50 
Q 1825 156 1822 413 
z
M 1822 616 
L 1822 1706 
Q 1350 1519 1213 1441 
Q 966 1303 859 1153 
Q 753 1003 753 825 
Q 753 600 887 451 
Q 1022 303 1197 303 
Q 1434 303 1822 616 
z
" transform="scale(0.015625)"/>
       <path id="TimesNewRomanPSMT-69" d="M 928 4444 
Q 1059 4444 1151 4351 
Q 1244 4259 1244 4128 
Q 1244 3997 1151 3903 
Q 1059 3809 928 3809 
Q 797 3809 703 3903 
Q 609 3997 609 4128 
Q 609 4259 701 4351 
Q 794 4444 928 4444 
z
M 1188 2947 
L 1188 647 
Q 1188 378 1227 289 
Q 1266 200 1342 156 
Q 1419 113 1622 113 
L 1622 0 
L 231 0 
L 231 113 
Q 441 113 512 153 
Q 584 194 626 287 
Q 669 381 669 647 
L 669 1750 
Q 669 2216 641 2353 
Q 619 2453 572 2492 
Q 525 2531 444 2531 
Q 356 2531 231 2484 
L 188 2597 
L 1050 2947 
L 1188 2947 
z
" transform="scale(0.015625)"/>
       <path id="TimesNewRomanPSMT-6e" d="M 1034 2341 
Q 1538 2947 1994 2947 
Q 2228 2947 2397 2830 
Q 2566 2713 2666 2444 
Q 2734 2256 2734 1869 
L 2734 647 
Q 2734 375 2778 278 
Q 2813 200 2889 156 
Q 2966 113 3172 113 
L 3172 0 
L 1756 0 
L 1756 113 
L 1816 113 
Q 2016 113 2095 173 
Q 2175 234 2206 353 
Q 2219 400 2219 647 
L 2219 1819 
Q 2219 2209 2117 2386 
Q 2016 2563 1775 2563 
Q 1403 2563 1034 2156 
L 1034 647 
Q 1034 356 1069 288 
Q 1113 197 1189 155 
Q 1266 113 1500 113 
L 1500 0 
L 84 0 
L 84 113 
L 147 113 
Q 366 113 442 223 
Q 519 334 519 647 
L 519 1709 
Q 519 2225 495 2337 
Q 472 2450 423 2490 
Q 375 2531 294 2531 
Q 206 2531 84 2484 
L 38 2597 
L 900 2947 
L 1034 2947 
L 1034 2341 
z
" transform="scale(0.015625)"/>
       <path id="TimesNewRomanPSMT-67" d="M 966 1044 
Q 703 1172 562 1401 
Q 422 1631 422 1909 
Q 422 2334 742 2640 
Q 1063 2947 1563 2947 
Q 1972 2947 2272 2747 
L 2878 2747 
Q 3013 2747 3034 2739 
Q 3056 2731 3066 2713 
Q 3084 2684 3084 2613 
Q 3084 2531 3069 2500 
Q 3059 2484 3036 2475 
Q 3013 2466 2878 2466 
L 2506 2466 
Q 2681 2241 2681 1891 
Q 2681 1491 2375 1206 
Q 2069 922 1553 922 
Q 1341 922 1119 984 
Q 981 866 932 777 
Q 884 688 884 625 
Q 884 572 936 522 
Q 988 472 1138 450 
Q 1225 438 1575 428 
Q 2219 413 2409 384 
Q 2700 344 2873 169 
Q 3047 -6 3047 -263 
Q 3047 -616 2716 -925 
Q 2228 -1381 1444 -1381 
Q 841 -1381 425 -1109 
Q 191 -953 191 -784 
Q 191 -709 225 -634 
Q 278 -519 444 -313 
Q 466 -284 763 25 
Q 600 122 533 198 
Q 466 275 466 372 
Q 466 481 555 628 
Q 644 775 966 1044 
z
M 1509 2797 
Q 1278 2797 1122 2612 
Q 966 2428 966 2047 
Q 966 1553 1178 1281 
Q 1341 1075 1591 1075 
Q 1828 1075 1981 1253 
Q 2134 1431 2134 1813 
Q 2134 2309 1919 2591 
Q 1759 2797 1509 2797 
z
M 934 0 
Q 788 -159 713 -296 
Q 638 -434 638 -550 
Q 638 -700 819 -813 
Q 1131 -1006 1722 -1006 
Q 2284 -1006 2551 -807 
Q 2819 -609 2819 -384 
Q 2819 -222 2659 -153 
Q 2497 -84 2016 -72 
Q 1313 -53 934 0 
z
" transform="scale(0.015625)"/>
       <path id="TimesNewRomanPSMT-20" transform="scale(0.015625)"/>
       <path id="TimesNewRomanPSMT-4c" d="M 3669 1172 
L 3772 1150 
L 3409 0 
L 128 0 
L 128 116 
L 288 116 
Q 556 116 672 291 
Q 738 391 738 753 
L 738 3488 
Q 738 3884 650 3984 
Q 528 4122 288 4122 
L 128 4122 
L 128 4238 
L 2047 4238 
L 2047 4122 
Q 1709 4125 1573 4059 
Q 1438 3994 1388 3894 
Q 1338 3794 1338 3416 
L 1338 753 
Q 1338 494 1388 397 
Q 1425 331 1503 300 
Q 1581 269 1991 269 
L 2300 269 
Q 2788 269 2984 341 
Q 3181 413 3343 595 
Q 3506 778 3669 1172 
z
" transform="scale(0.015625)"/>
       <path id="TimesNewRomanPSMT-73" d="M 2050 2947 
L 2050 1972 
L 1947 1972 
Q 1828 2431 1642 2597 
Q 1456 2763 1169 2763 
Q 950 2763 815 2647 
Q 681 2531 681 2391 
Q 681 2216 781 2091 
Q 878 1963 1175 1819 
L 1631 1597 
Q 2266 1288 2266 781 
Q 2266 391 1970 151 
Q 1675 -88 1309 -88 
Q 1047 -88 709 6 
Q 606 38 541 38 
Q 469 38 428 -44 
L 325 -44 
L 325 978 
L 428 978 
Q 516 541 762 319 
Q 1009 97 1316 97 
Q 1531 97 1667 223 
Q 1803 350 1803 528 
Q 1803 744 1651 891 
Q 1500 1038 1047 1263 
Q 594 1488 453 1669 
Q 313 1847 313 2119 
Q 313 2472 555 2709 
Q 797 2947 1181 2947 
Q 1350 2947 1591 2875 
Q 1750 2828 1803 2828 
Q 1853 2828 1881 2850 
Q 1909 2872 1947 2947 
L 2050 2947 
z
" transform="scale(0.015625)"/>
      </defs>
      <use xlink:href="#TimesNewRomanPSMT-54"/>
      <use xlink:href="#TimesNewRomanPSMT-72" x="57.583984"/>
      <use xlink:href="#TimesNewRomanPSMT-61" x="90.884766"/>
      <use xlink:href="#TimesNewRomanPSMT-69" x="135.269531"/>
      <use xlink:href="#TimesNewRomanPSMT-6e" x="163.052734"/>
      <use xlink:href="#TimesNewRomanPSMT-69" x="213.052734"/>
      <use xlink:href="#TimesNewRomanPSMT-6e" x="240.835938"/>
      <use xlink:href="#TimesNewRomanPSMT-67" x="290.835938"/>
      <use xlink:href="#TimesNewRomanPSMT-20" x="340.835938"/>
      <use xlink:href="#TimesNewRomanPSMT-4c" x="365.835938"/>
      <use xlink:href="#TimesNewRomanPSMT-6f" x="426.919922"/>
      <use xlink:href="#TimesNewRomanPSMT-73" x="476.919922"/>
      <use xlink:href="#TimesNewRomanPSMT-73" x="515.835938"/>
     </g>
    </g>
   </g>
   <g id="line2d_29">
    <path d="M 100.407386 251.151287 
L 113.414379 359.75071 
L 126.421372 366.701932 
L 139.428365 378.804259 
L 152.435358 378.832085 
L 165.442351 377.487543 
L 178.449344 377.021412 
L 191.456337 379.172482 
L 204.46333 378.558307 
L 217.470323 374.276537 
L 230.477316 376.524971 
L 243.484309 377.311487 
L 256.491302 377.330069 
L 269.498295 377.930513 
L 282.505288 378.646452 
L 295.512281 376.281425 
L 308.519274 379.523067 
L 321.526267 377.626118 
L 334.53326 378.684209 
L 347.540253 364.768109 
L 360.547247 376.449633 
L 373.55424 376.194969 
L 386.561233 375.874119 
L 399.568226 377.667754 
L 412.575219 377.175021 
L 425.582212 379.682013 
L 438.589205 376.065968 
L 451.596198 377.775159 
L 464.603191 379.778345 
L 477.610184 378.776634 
L 490.617177 374.907832 
L 503.62417 376.826631 
L 516.631163 376.844319 
L 529.638156 375.956996 
L 542.645149 376.565765 
L 555.652142 375.287116 
L 568.659135 376.981909 
L 581.666128 378.10256 
L 594.673121 375.09561 
L 607.680114 378.457179 
" clip-path="url(#p4f877a7fa9)" style="fill: none; stroke: #0000ff; stroke-width: 1.5; stroke-linecap: square"/>
    <defs>
     <path id="md3a97c4bca" d="M 0 2.5 
C 0.663008 2.5 1.29895 2.236584 1.767767 1.767767 
C 2.236584 1.29895 2.5 0.663008 2.5 0 
C 2.5 -0.663008 2.236584 -1.29895 1.767767 -1.767767 
C 1.29895 -2.236584 0.663008 -2.5 0 -2.5 
C -0.663008 -2.5 -1.29895 -2.236584 -1.767767 -1.767767 
C -2.236584 -1.29895 -2.5 -0.663008 -2.5 0 
C -2.5 0.663008 -2.236584 1.29895 -1.767767 1.767767 
C -1.29895 2.236584 -0.663008 2.5 0 2.5 
z
" style="stroke: #0000ff"/>
    </defs>
    <g clip-path="url(#p4f877a7fa9)">
     <use xlink:href="#md3a97c4bca" x="100.407386" y="251.151287" style="fill: #0000ff; stroke: #0000ff"/>
     <use xlink:href="#md3a97c4bca" x="113.414379" y="359.75071" style="fill: #0000ff; stroke: #0000ff"/>
     <use xlink:href="#md3a97c4bca" x="126.421372" y="366.701932" style="fill: #0000ff; stroke: #0000ff"/>
     <use xlink:href="#md3a97c4bca" x="139.428365" y="378.804259" style="fill: #0000ff; stroke: #0000ff"/>
     <use xlink:href="#md3a97c4bca" x="152.435358" y="378.832085" style="fill: #0000ff; stroke: #0000ff"/>
     <use xlink:href="#md3a97c4bca" x="165.442351" y="377.487543" style="fill: #0000ff; stroke: #0000ff"/>
     <use xlink:href="#md3a97c4bca" x="178.449344" y="377.021412" style="fill: #0000ff; stroke: #0000ff"/>
     <use xlink:href="#md3a97c4bca" x="191.456337" y="379.172482" style="fill: #0000ff; stroke: #0000ff"/>
     <use xlink:href="#md3a97c4bca" x="204.46333" y="378.558307" style="fill: #0000ff; stroke: #0000ff"/>
     <use xlink:href="#md3a97c4bca" x="217.470323" y="374.276537" style="fill: #0000ff; stroke: #0000ff"/>
     <use xlink:href="#md3a97c4bca" x="230.477316" y="376.524971" style="fill: #0000ff; stroke: #0000ff"/>
     <use xlink:href="#md3a97c4bca" x="243.484309" y="377.311487" style="fill: #0000ff; stroke: #0000ff"/>
     <use xlink:href="#md3a97c4bca" x="256.491302" y="377.330069" style="fill: #0000ff; stroke: #0000ff"/>
     <use xlink:href="#md3a97c4bca" x="269.498295" y="377.930513" style="fill: #0000ff; stroke: #0000ff"/>
     <use xlink:href="#md3a97c4bca" x="282.505288" y="378.646452" style="fill: #0000ff; stroke: #0000ff"/>
     <use xlink:href="#md3a97c4bca" x="295.512281" y="376.281425" style="fill: #0000ff; stroke: #0000ff"/>
     <use xlink:href="#md3a97c4bca" x="308.519274" y="379.523067" style="fill: #0000ff; stroke: #0000ff"/>
     <use xlink:href="#md3a97c4bca" x="321.526267" y="377.626118" style="fill: #0000ff; stroke: #0000ff"/>
     <use xlink:href="#md3a97c4bca" x="334.53326" y="378.684209" style="fill: #0000ff; stroke: #0000ff"/>
     <use xlink:href="#md3a97c4bca" x="347.540253" y="364.768109" style="fill: #0000ff; stroke: #0000ff"/>
     <use xlink:href="#md3a97c4bca" x="360.547247" y="376.449633" style="fill: #0000ff; stroke: #0000ff"/>
     <use xlink:href="#md3a97c4bca" x="373.55424" y="376.194969" style="fill: #0000ff; stroke: #0000ff"/>
     <use xlink:href="#md3a97c4bca" x="386.561233" y="375.874119" style="fill: #0000ff; stroke: #0000ff"/>
     <use xlink:href="#md3a97c4bca" x="399.568226" y="377.667754" style="fill: #0000ff; stroke: #0000ff"/>
     <use xlink:href="#md3a97c4bca" x="412.575219" y="377.175021" style="fill: #0000ff; stroke: #0000ff"/>
     <use xlink:href="#md3a97c4bca" x="425.582212" y="379.682013" style="fill: #0000ff; stroke: #0000ff"/>
     <use xlink:href="#md3a97c4bca" x="438.589205" y="376.065968" style="fill: #0000ff; stroke: #0000ff"/>
     <use xlink:href="#md3a97c4bca" x="451.596198" y="377.775159" style="fill: #0000ff; stroke: #0000ff"/>
     <use xlink:href="#md3a97c4bca" x="464.603191" y="379.778345" style="fill: #0000ff; stroke: #0000ff"/>
     <use xlink:href="#md3a97c4bca" x="477.610184" y="378.776634" style="fill: #0000ff; stroke: #0000ff"/>
     <use xlink:href="#md3a97c4bca" x="490.617177" y="374.907832" style="fill: #0000ff; stroke: #0000ff"/>
     <use xlink:href="#md3a97c4bca" x="503.62417" y="376.826631" style="fill: #0000ff; stroke: #0000ff"/>
     <use xlink:href="#md3a97c4bca" x="516.631163" y="376.844319" style="fill: #0000ff; stroke: #0000ff"/>
     <use xlink:href="#md3a97c4bca" x="529.638156" y="375.956996" style="fill: #0000ff; stroke: #0000ff"/>
     <use xlink:href="#md3a97c4bca" x="542.645149" y="376.565765" style="fill: #0000ff; stroke: #0000ff"/>
     <use xlink:href="#md3a97c4bca" x="555.652142" y="375.287116" style="fill: #0000ff; stroke: #0000ff"/>
     <use xlink:href="#md3a97c4bca" x="568.659135" y="376.981909" style="fill: #0000ff; stroke: #0000ff"/>
     <use xlink:href="#md3a97c4bca" x="581.666128" y="378.10256" style="fill: #0000ff; stroke: #0000ff"/>
     <use xlink:href="#md3a97c4bca" x="594.673121" y="375.09561" style="fill: #0000ff; stroke: #0000ff"/>
     <use xlink:href="#md3a97c4bca" x="607.680114" y="378.457179" style="fill: #0000ff; stroke: #0000ff"/>
    </g>
   </g>
   <g id="line2d_30">
    <path d="M 100.407386 187.104697 
L 113.414379 384.337138 
L 126.421372 399.008329 
L 139.428365 400.140673 
L 152.435358 400.252448 
L 165.442351 400.28221 
L 178.449344 400.295048 
L 191.456337 400.300586 
L 204.46333 400.302756 
L 217.470323 400.303907 
L 230.477316 400.304456 
L 243.484309 400.304721 
L 256.491302 400.304856 
L 269.498295 400.304927 
L 282.505288 400.304963 
L 295.512281 400.304981 
L 308.519274 400.30499 
L 321.526267 400.304995 
L 334.53326 400.304998 
L 347.540253 400.304999 
L 360.547247 400.305 
L 373.55424 384.879348 
L 386.561233 400.2628 
L 399.568226 400.288249 
L 412.575219 400.297448 
L 425.582212 400.301016 
L 438.589205 400.302784 
L 451.596198 400.303781 
L 464.603191 400.304317 
L 477.610184 400.304613 
L 490.617177 400.304783 
L 503.62417 400.304881 
L 516.631163 400.304936 
L 529.638156 400.304967 
L 542.645149 400.304982 
L 555.652142 400.30499 
L 568.659135 400.304995 
L 581.666128 400.304998 
L 594.673121 400.304999 
L 607.680114 400.305 
" clip-path="url(#p4f877a7fa9)" style="fill: none; stroke: #008000; stroke-width: 1.5; stroke-linecap: square"/>
    <defs>
     <path id="m923e46e4b5" d="M 0 -2.5 
L -2.5 2.5 
L 2.5 2.5 
z
" style="stroke: #008000; stroke-linejoin: miter"/>
    </defs>
    <g clip-path="url(#p4f877a7fa9)">
     <use xlink:href="#m923e46e4b5" x="100.407386" y="187.104697" style="fill: #008000; stroke: #008000; stroke-linejoin: miter"/>
     <use xlink:href="#m923e46e4b5" x="113.414379" y="384.337138" style="fill: #008000; stroke: #008000; stroke-linejoin: miter"/>
     <use xlink:href="#m923e46e4b5" x="126.421372" y="399.008329" style="fill: #008000; stroke: #008000; stroke-linejoin: miter"/>
     <use xlink:href="#m923e46e4b5" x="139.428365" y="400.140673" style="fill: #008000; stroke: #008000; stroke-linejoin: miter"/>
     <use xlink:href="#m923e46e4b5" x="152.435358" y="400.252448" style="fill: #008000; stroke: #008000; stroke-linejoin: miter"/>
     <use xlink:href="#m923e46e4b5" x="165.442351" y="400.28221" style="fill: #008000; stroke: #008000; stroke-linejoin: miter"/>
     <use xlink:href="#m923e46e4b5" x="178.449344" y="400.295048" style="fill: #008000; stroke: #008000; stroke-linejoin: miter"/>
     <use xlink:href="#m923e46e4b5" x="191.456337" y="400.300586" style="fill: #008000; stroke: #008000; stroke-linejoin: miter"/>
     <use xlink:href="#m923e46e4b5" x="204.46333" y="400.302756" style="fill: #008000; stroke: #008000; stroke-linejoin: miter"/>
     <use xlink:href="#m923e46e4b5" x="217.470323" y="400.303907" style="fill: #008000; stroke: #008000; stroke-linejoin: miter"/>
     <use xlink:href="#m923e46e4b5" x="230.477316" y="400.304456" style="fill: #008000; stroke: #008000; stroke-linejoin: miter"/>
     <use xlink:href="#m923e46e4b5" x="243.484309" y="400.304721" style="fill: #008000; stroke: #008000; stroke-linejoin: miter"/>
     <use xlink:href="#m923e46e4b5" x="256.491302" y="400.304856" style="fill: #008000; stroke: #008000; stroke-linejoin: miter"/>
     <use xlink:href="#m923e46e4b5" x="269.498295" y="400.304927" style="fill: #008000; stroke: #008000; stroke-linejoin: miter"/>
     <use xlink:href="#m923e46e4b5" x="282.505288" y="400.304963" style="fill: #008000; stroke: #008000; stroke-linejoin: miter"/>
     <use xlink:href="#m923e46e4b5" x="295.512281" y="400.304981" style="fill: #008000; stroke: #008000; stroke-linejoin: miter"/>
     <use xlink:href="#m923e46e4b5" x="308.519274" y="400.30499" style="fill: #008000; stroke: #008000; stroke-linejoin: miter"/>
     <use xlink:href="#m923e46e4b5" x="321.526267" y="400.304995" style="fill: #008000; stroke: #008000; stroke-linejoin: miter"/>
     <use xlink:href="#m923e46e4b5" x="334.53326" y="400.304998" style="fill: #008000; stroke: #008000; stroke-linejoin: miter"/>
     <use xlink:href="#m923e46e4b5" x="347.540253" y="400.304999" style="fill: #008000; stroke: #008000; stroke-linejoin: miter"/>
     <use xlink:href="#m923e46e4b5" x="360.547247" y="400.305" style="fill: #008000; stroke: #008000; stroke-linejoin: miter"/>
     <use xlink:href="#m923e46e4b5" x="373.55424" y="384.879348" style="fill: #008000; stroke: #008000; stroke-linejoin: miter"/>
     <use xlink:href="#m923e46e4b5" x="386.561233" y="400.2628" style="fill: #008000; stroke: #008000; stroke-linejoin: miter"/>
     <use xlink:href="#m923e46e4b5" x="399.568226" y="400.288249" style="fill: #008000; stroke: #008000; stroke-linejoin: miter"/>
     <use xlink:href="#m923e46e4b5" x="412.575219" y="400.297448" style="fill: #008000; stroke: #008000; stroke-linejoin: miter"/>
     <use xlink:href="#m923e46e4b5" x="425.582212" y="400.301016" style="fill: #008000; stroke: #008000; stroke-linejoin: miter"/>
     <use xlink:href="#m923e46e4b5" x="438.589205" y="400.302784" style="fill: #008000; stroke: #008000; stroke-linejoin: miter"/>
     <use xlink:href="#m923e46e4b5" x="451.596198" y="400.303781" style="fill: #008000; stroke: #008000; stroke-linejoin: miter"/>
     <use xlink:href="#m923e46e4b5" x="464.603191" y="400.304317" style="fill: #008000; stroke: #008000; stroke-linejoin: miter"/>
     <use xlink:href="#m923e46e4b5" x="477.610184" y="400.304613" style="fill: #008000; stroke: #008000; stroke-linejoin: miter"/>
     <use xlink:href="#m923e46e4b5" x="490.617177" y="400.304783" style="fill: #008000; stroke: #008000; stroke-linejoin: miter"/>
     <use xlink:href="#m923e46e4b5" x="503.62417" y="400.304881" style="fill: #008000; stroke: #008000; stroke-linejoin: miter"/>
     <use xlink:href="#m923e46e4b5" x="516.631163" y="400.304936" style="fill: #008000; stroke: #008000; stroke-linejoin: miter"/>
     <use xlink:href="#m923e46e4b5" x="529.638156" y="400.304967" style="fill: #008000; stroke: #008000; stroke-linejoin: miter"/>
     <use xlink:href="#m923e46e4b5" x="542.645149" y="400.304982" style="fill: #008000; stroke: #008000; stroke-linejoin: miter"/>
     <use xlink:href="#m923e46e4b5" x="555.652142" y="400.30499" style="fill: #008000; stroke: #008000; stroke-linejoin: miter"/>
     <use xlink:href="#m923e46e4b5" x="568.659135" y="400.304995" style="fill: #008000; stroke: #008000; stroke-linejoin: miter"/>
     <use xlink:href="#m923e46e4b5" x="581.666128" y="400.304998" style="fill: #008000; stroke: #008000; stroke-linejoin: miter"/>
     <use xlink:href="#m923e46e4b5" x="594.673121" y="400.304999" style="fill: #008000; stroke: #008000; stroke-linejoin: miter"/>
     <use xlink:href="#m923e46e4b5" x="607.680114" y="400.305" style="fill: #008000; stroke: #008000; stroke-linejoin: miter"/>
    </g>
   </g>
   <g id="line2d_31">
    <path d="M 100.407386 47.505 
L 113.414379 311.758226 
L 126.421372 348.20842 
L 139.428365 349.801657 
L 152.435358 352.173008 
L 165.442351 351.078186 
L 178.449344 352.342693 
L 191.456337 350.1743 
L 204.46333 351.687159 
L 217.470323 352.858099 
L 230.477316 351.867095 
L 243.484309 351.977168 
L 256.491302 351.684628 
L 269.498295 351.524869 
L 282.505288 350.18782 
L 295.512281 352.049441 
L 308.519274 352.294987 
L 321.526267 350.556735 
L 334.53326 349.239851 
L 347.540253 352.431006 
L 360.547247 350.672889 
L 373.55424 349.397031 
L 386.561233 350.260055 
L 399.568226 351.985859 
L 412.575219 351.469109 
L 425.582212 352.096536 
L 438.589205 351.189123 
L 451.596198 349.637598 
L 464.603191 352.038276 
L 477.610184 350.827164 
L 490.617177 352.002352 
L 503.62417 351.543438 
L 516.631163 350.896469 
L 529.638156 350.846831 
L 542.645149 352.294002 
L 555.652142 351.370846 
L 568.659135 351.454459 
L 581.666128 352.42481 
L 594.673121 352.490712 
L 607.680114 350.042039 
" clip-path="url(#p4f877a7fa9)" style="fill: none; stroke: #ff0000; stroke-width: 1.5; stroke-linecap: square"/>
    <defs>
     <path id="m1120518d4b" d="M -2.5 2.5 
L 2.5 2.5 
L 2.5 -2.5 
L -2.5 -2.5 
z
" style="stroke: #ff0000; stroke-linejoin: miter"/>
    </defs>
    <g clip-path="url(#p4f877a7fa9)">
     <use xlink:href="#m1120518d4b" x="100.407386" y="47.505" style="fill: #ff0000; stroke: #ff0000; stroke-linejoin: miter"/>
     <use xlink:href="#m1120518d4b" x="113.414379" y="311.758226" style="fill: #ff0000; stroke: #ff0000; stroke-linejoin: miter"/>
     <use xlink:href="#m1120518d4b" x="126.421372" y="348.20842" style="fill: #ff0000; stroke: #ff0000; stroke-linejoin: miter"/>
     <use xlink:href="#m1120518d4b" x="139.428365" y="349.801657" style="fill: #ff0000; stroke: #ff0000; stroke-linejoin: miter"/>
     <use xlink:href="#m1120518d4b" x="152.435358" y="352.173008" style="fill: #ff0000; stroke: #ff0000; stroke-linejoin: miter"/>
     <use xlink:href="#m1120518d4b" x="165.442351" y="351.078186" style="fill: #ff0000; stroke: #ff0000; stroke-linejoin: miter"/>
     <use xlink:href="#m1120518d4b" x="178.449344" y="352.342693" style="fill: #ff0000; stroke: #ff0000; stroke-linejoin: miter"/>
     <use xlink:href="#m1120518d4b" x="191.456337" y="350.1743" style="fill: #ff0000; stroke: #ff0000; stroke-linejoin: miter"/>
     <use xlink:href="#m1120518d4b" x="204.46333" y="351.687159" style="fill: #ff0000; stroke: #ff0000; stroke-linejoin: miter"/>
     <use xlink:href="#m1120518d4b" x="217.470323" y="352.858099" style="fill: #ff0000; stroke: #ff0000; stroke-linejoin: miter"/>
     <use xlink:href="#m1120518d4b" x="230.477316" y="351.867095" style="fill: #ff0000; stroke: #ff0000; stroke-linejoin: miter"/>
     <use xlink:href="#m1120518d4b" x="243.484309" y="351.977168" style="fill: #ff0000; stroke: #ff0000; stroke-linejoin: miter"/>
     <use xlink:href="#m1120518d4b" x="256.491302" y="351.684628" style="fill: #ff0000; stroke: #ff0000; stroke-linejoin: miter"/>
     <use xlink:href="#m1120518d4b" x="269.498295" y="351.524869" style="fill: #ff0000; stroke: #ff0000; stroke-linejoin: miter"/>
     <use xlink:href="#m1120518d4b" x="282.505288" y="350.18782" style="fill: #ff0000; stroke: #ff0000; stroke-linejoin: miter"/>
     <use xlink:href="#m1120518d4b" x="295.512281" y="352.049441" style="fill: #ff0000; stroke: #ff0000; stroke-linejoin: miter"/>
     <use xlink:href="#m1120518d4b" x="308.519274" y="352.294987" style="fill: #ff0000; stroke: #ff0000; stroke-linejoin: miter"/>
     <use xlink:href="#m1120518d4b" x="321.526267" y="350.556735" style="fill: #ff0000; stroke: #ff0000; stroke-linejoin: miter"/>
     <use xlink:href="#m1120518d4b" x="334.53326" y="349.239851" style="fill: #ff0000; stroke: #ff0000; stroke-linejoin: miter"/>
     <use xlink:href="#m1120518d4b" x="347.540253" y="352.431006" style="fill: #ff0000; stroke: #ff0000; stroke-linejoin: miter"/>
     <use xlink:href="#m1120518d4b" x="360.547247" y="350.672889" style="fill: #ff0000; stroke: #ff0000; stroke-linejoin: miter"/>
     <use xlink:href="#m1120518d4b" x="373.55424" y="349.397031" style="fill: #ff0000; stroke: #ff0000; stroke-linejoin: miter"/>
     <use xlink:href="#m1120518d4b" x="386.561233" y="350.260055" style="fill: #ff0000; stroke: #ff0000; stroke-linejoin: miter"/>
     <use xlink:href="#m1120518d4b" x="399.568226" y="351.985859" style="fill: #ff0000; stroke: #ff0000; stroke-linejoin: miter"/>
     <use xlink:href="#m1120518d4b" x="412.575219" y="351.469109" style="fill: #ff0000; stroke: #ff0000; stroke-linejoin: miter"/>
     <use xlink:href="#m1120518d4b" x="425.582212" y="352.096536" style="fill: #ff0000; stroke: #ff0000; stroke-linejoin: miter"/>
     <use xlink:href="#m1120518d4b" x="438.589205" y="351.189123" style="fill: #ff0000; stroke: #ff0000; stroke-linejoin: miter"/>
     <use xlink:href="#m1120518d4b" x="451.596198" y="349.637598" style="fill: #ff0000; stroke: #ff0000; stroke-linejoin: miter"/>
     <use xlink:href="#m1120518d4b" x="464.603191" y="352.038276" style="fill: #ff0000; stroke: #ff0000; stroke-linejoin: miter"/>
     <use xlink:href="#m1120518d4b" x="477.610184" y="350.827164" style="fill: #ff0000; stroke: #ff0000; stroke-linejoin: miter"/>
     <use xlink:href="#m1120518d4b" x="490.617177" y="352.002352" style="fill: #ff0000; stroke: #ff0000; stroke-linejoin: miter"/>
     <use xlink:href="#m1120518d4b" x="503.62417" y="351.543438" style="fill: #ff0000; stroke: #ff0000; stroke-linejoin: miter"/>
     <use xlink:href="#m1120518d4b" x="516.631163" y="350.896469" style="fill: #ff0000; stroke: #ff0000; stroke-linejoin: miter"/>
     <use xlink:href="#m1120518d4b" x="529.638156" y="350.846831" style="fill: #ff0000; stroke: #ff0000; stroke-linejoin: miter"/>
     <use xlink:href="#m1120518d4b" x="542.645149" y="352.294002" style="fill: #ff0000; stroke: #ff0000; stroke-linejoin: miter"/>
     <use xlink:href="#m1120518d4b" x="555.652142" y="351.370846" style="fill: #ff0000; stroke: #ff0000; stroke-linejoin: miter"/>
     <use xlink:href="#m1120518d4b" x="568.659135" y="351.454459" style="fill: #ff0000; stroke: #ff0000; stroke-linejoin: miter"/>
     <use xlink:href="#m1120518d4b" x="581.666128" y="352.42481" style="fill: #ff0000; stroke: #ff0000; stroke-linejoin: miter"/>
     <use xlink:href="#m1120518d4b" x="594.673121" y="352.490712" style="fill: #ff0000; stroke: #ff0000; stroke-linejoin: miter"/>
     <use xlink:href="#m1120518d4b" x="607.680114" y="350.042039" style="fill: #ff0000; stroke: #ff0000; stroke-linejoin: miter"/>
    </g>
   </g>
   <g id="line2d_32">
    <path d="M 100.407386 165.073905 
L 113.414379 347.068286 
L 126.421372 354.323407 
L 139.428365 353.677658 
L 152.435358 355.985826 
L 165.442351 355.248432 
L 178.449344 356.63655 
L 191.456337 356.723907 
L 204.46333 355.280404 
L 217.470323 356.416067 
L 230.477316 355.838412 
L 243.484309 356.049226 
L 256.491302 358.238273 
L 269.498295 356.855159 
L 282.505288 355.426841 
L 295.512281 355.582851 
L 308.519274 356.705001 
L 321.526267 355.9342 
L 334.53326 356.67108 
L 347.540253 355.599971 
L 360.547247 357.385482 
L 373.55424 356.857593 
L 386.561233 356.018474 
L 399.568226 356.409838 
L 412.575219 357.868676 
L 425.582212 357.60859 
L 438.589205 358.463081 
L 451.596198 358.049247 
L 464.603191 358.060763 
L 477.610184 358.024582 
L 490.617177 356.713651 
L 503.62417 358.144148 
L 516.631163 356.529283 
L 529.638156 358.140248 
L 542.645149 358.114019 
L 555.652142 358.5834 
L 568.659135 359.489362 
L 581.666128 357.598959 
L 594.673121 358.396159 
L 607.680114 358.217601 
" clip-path="url(#p4f877a7fa9)" style="fill: none; stroke: #00bfbf; stroke-width: 1.5; stroke-linecap: square"/>
    <defs>
     <path id="med1cc00ef8" d="M 0 -2.5 
L -2.377641 -0.772542 
L -1.469463 2.022542 
L 1.469463 2.022542 
L 2.377641 -0.772542 
z
" style="stroke: #00bfbf; stroke-linejoin: miter"/>
    </defs>
    <g clip-path="url(#p4f877a7fa9)">
     <use xlink:href="#med1cc00ef8" x="100.407386" y="165.073905" style="fill: #00bfbf; stroke: #00bfbf; stroke-linejoin: miter"/>
     <use xlink:href="#med1cc00ef8" x="113.414379" y="347.068286" style="fill: #00bfbf; stroke: #00bfbf; stroke-linejoin: miter"/>
     <use xlink:href="#med1cc00ef8" x="126.421372" y="354.323407" style="fill: #00bfbf; stroke: #00bfbf; stroke-linejoin: miter"/>
     <use xlink:href="#med1cc00ef8" x="139.428365" y="353.677658" style="fill: #00bfbf; stroke: #00bfbf; stroke-linejoin: miter"/>
     <use xlink:href="#med1cc00ef8" x="152.435358" y="355.985826" style="fill: #00bfbf; stroke: #00bfbf; stroke-linejoin: miter"/>
     <use xlink:href="#med1cc00ef8" x="165.442351" y="355.248432" style="fill: #00bfbf; stroke: #00bfbf; stroke-linejoin: miter"/>
     <use xlink:href="#med1cc00ef8" x="178.449344" y="356.63655" style="fill: #00bfbf; stroke: #00bfbf; stroke-linejoin: miter"/>
     <use xlink:href="#med1cc00ef8" x="191.456337" y="356.723907" style="fill: #00bfbf; stroke: #00bfbf; stroke-linejoin: miter"/>
     <use xlink:href="#med1cc00ef8" x="204.46333" y="355.280404" style="fill: #00bfbf; stroke: #00bfbf; stroke-linejoin: miter"/>
     <use xlink:href="#med1cc00ef8" x="217.470323" y="356.416067" style="fill: #00bfbf; stroke: #00bfbf; stroke-linejoin: miter"/>
     <use xlink:href="#med1cc00ef8" x="230.477316" y="355.838412" style="fill: #00bfbf; stroke: #00bfbf; stroke-linejoin: miter"/>
     <use xlink:href="#med1cc00ef8" x="243.484309" y="356.049226" style="fill: #00bfbf; stroke: #00bfbf; stroke-linejoin: miter"/>
     <use xlink:href="#med1cc00ef8" x="256.491302" y="358.238273" style="fill: #00bfbf; stroke: #00bfbf; stroke-linejoin: miter"/>
     <use xlink:href="#med1cc00ef8" x="269.498295" y="356.855159" style="fill: #00bfbf; stroke: #00bfbf; stroke-linejoin: miter"/>
     <use xlink:href="#med1cc00ef8" x="282.505288" y="355.426841" style="fill: #00bfbf; stroke: #00bfbf; stroke-linejoin: miter"/>
     <use xlink:href="#med1cc00ef8" x="295.512281" y="355.582851" style="fill: #00bfbf; stroke: #00bfbf; stroke-linejoin: miter"/>
     <use xlink:href="#med1cc00ef8" x="308.519274" y="356.705001" style="fill: #00bfbf; stroke: #00bfbf; stroke-linejoin: miter"/>
     <use xlink:href="#med1cc00ef8" x="321.526267" y="355.9342" style="fill: #00bfbf; stroke: #00bfbf; stroke-linejoin: miter"/>
     <use xlink:href="#med1cc00ef8" x="334.53326" y="356.67108" style="fill: #00bfbf; stroke: #00bfbf; stroke-linejoin: miter"/>
     <use xlink:href="#med1cc00ef8" x="347.540253" y="355.599971" style="fill: #00bfbf; stroke: #00bfbf; stroke-linejoin: miter"/>
     <use xlink:href="#med1cc00ef8" x="360.547247" y="357.385482" style="fill: #00bfbf; stroke: #00bfbf; stroke-linejoin: miter"/>
     <use xlink:href="#med1cc00ef8" x="373.55424" y="356.857593" style="fill: #00bfbf; stroke: #00bfbf; stroke-linejoin: miter"/>
     <use xlink:href="#med1cc00ef8" x="386.561233" y="356.018474" style="fill: #00bfbf; stroke: #00bfbf; stroke-linejoin: miter"/>
     <use xlink:href="#med1cc00ef8" x="399.568226" y="356.409838" style="fill: #00bfbf; stroke: #00bfbf; stroke-linejoin: miter"/>
     <use xlink:href="#med1cc00ef8" x="412.575219" y="357.868676" style="fill: #00bfbf; stroke: #00bfbf; stroke-linejoin: miter"/>
     <use xlink:href="#med1cc00ef8" x="425.582212" y="357.60859" style="fill: #00bfbf; stroke: #00bfbf; stroke-linejoin: miter"/>
     <use xlink:href="#med1cc00ef8" x="438.589205" y="358.463081" style="fill: #00bfbf; stroke: #00bfbf; stroke-linejoin: miter"/>
     <use xlink:href="#med1cc00ef8" x="451.596198" y="358.049247" style="fill: #00bfbf; stroke: #00bfbf; stroke-linejoin: miter"/>
     <use xlink:href="#med1cc00ef8" x="464.603191" y="358.060763" style="fill: #00bfbf; stroke: #00bfbf; stroke-linejoin: miter"/>
     <use xlink:href="#med1cc00ef8" x="477.610184" y="358.024582" style="fill: #00bfbf; stroke: #00bfbf; stroke-linejoin: miter"/>
     <use xlink:href="#med1cc00ef8" x="490.617177" y="356.713651" style="fill: #00bfbf; stroke: #00bfbf; stroke-linejoin: miter"/>
     <use xlink:href="#med1cc00ef8" x="503.62417" y="358.144148" style="fill: #00bfbf; stroke: #00bfbf; stroke-linejoin: miter"/>
     <use xlink:href="#med1cc00ef8" x="516.631163" y="356.529283" style="fill: #00bfbf; stroke: #00bfbf; stroke-linejoin: miter"/>
     <use xlink:href="#med1cc00ef8" x="529.638156" y="358.140248" style="fill: #00bfbf; stroke: #00bfbf; stroke-linejoin: miter"/>
     <use xlink:href="#med1cc00ef8" x="542.645149" y="358.114019" style="fill: #00bfbf; stroke: #00bfbf; stroke-linejoin: miter"/>
     <use xlink:href="#med1cc00ef8" x="555.652142" y="358.5834" style="fill: #00bfbf; stroke: #00bfbf; stroke-linejoin: miter"/>
     <use xlink:href="#med1cc00ef8" x="568.659135" y="359.489362" style="fill: #00bfbf; stroke: #00bfbf; stroke-linejoin: miter"/>
     <use xlink:href="#med1cc00ef8" x="581.666128" y="357.598959" style="fill: #00bfbf; stroke: #00bfbf; stroke-linejoin: miter"/>
     <use xlink:href="#med1cc00ef8" x="594.673121" y="358.396159" style="fill: #00bfbf; stroke: #00bfbf; stroke-linejoin: miter"/>
     <use xlink:href="#med1cc00ef8" x="607.680114" y="358.217601" style="fill: #00bfbf; stroke: #00bfbf; stroke-linejoin: miter"/>
    </g>
   </g>
   <g id="line2d_33">
    <path d="M 100.407386 202.142801 
L 113.414379 340.636084 
L 126.421372 361.224758 
L 139.428365 367.138845 
L 152.435358 377.714297 
L 165.442351 382.311416 
L 178.449344 381.883782 
L 191.456337 382.531006 
L 204.46333 384.466561 
L 217.470323 383.048138 
L 230.477316 383.283266 
L 243.484309 382.403024 
L 256.491302 383.189327 
L 269.498295 382.215173 
L 282.505288 381.045424 
L 295.512281 381.659045 
L 308.519274 384.092039 
L 321.526267 381.28823 
L 334.53326 383.3272 
L 347.540253 383.685282 
L 360.547247 383.115269 
L 373.55424 385.473893 
L 386.561233 383.351324 
L 399.568226 384.653603 
L 412.575219 381.635087 
L 425.582212 382.862682 
L 438.589205 382.528834 
L 451.596198 382.966049 
L 464.603191 383.424934 
L 477.610184 383.173025 
L 490.617177 382.569305 
L 503.62417 385.200082 
L 516.631163 385.708366 
L 529.638156 385.156348 
L 542.645149 380.965337 
L 555.652142 383.453398 
L 568.659135 385.211593 
L 581.666128 383.387422 
L 594.673121 385.279086 
L 607.680114 384.733635 
" clip-path="url(#p4f877a7fa9)" style="fill: none; stroke: #bf00bf; stroke-width: 1.5; stroke-linecap: square"/>
    <defs>
     <path id="m6857254ad2" d="M 0 -2.5 
L -0.561285 -0.772542 
L -2.377641 -0.772542 
L -0.908178 0.295085 
L -1.469463 2.022542 
L -0 0.954915 
L 1.469463 2.022542 
L 0.908178 0.295085 
L 2.377641 -0.772542 
L 0.561285 -0.772542 
z
" style="stroke: #bf00bf; stroke-linejoin: bevel"/>
    </defs>
    <g clip-path="url(#p4f877a7fa9)">
     <use xlink:href="#m6857254ad2" x="100.407386" y="202.142801" style="fill: #bf00bf; stroke: #bf00bf; stroke-linejoin: bevel"/>
     <use xlink:href="#m6857254ad2" x="113.414379" y="340.636084" style="fill: #bf00bf; stroke: #bf00bf; stroke-linejoin: bevel"/>
     <use xlink:href="#m6857254ad2" x="126.421372" y="361.224758" style="fill: #bf00bf; stroke: #bf00bf; stroke-linejoin: bevel"/>
     <use xlink:href="#m6857254ad2" x="139.428365" y="367.138845" style="fill: #bf00bf; stroke: #bf00bf; stroke-linejoin: bevel"/>
     <use xlink:href="#m6857254ad2" x="152.435358" y="377.714297" style="fill: #bf00bf; stroke: #bf00bf; stroke-linejoin: bevel"/>
     <use xlink:href="#m6857254ad2" x="165.442351" y="382.311416" style="fill: #bf00bf; stroke: #bf00bf; stroke-linejoin: bevel"/>
     <use xlink:href="#m6857254ad2" x="178.449344" y="381.883782" style="fill: #bf00bf; stroke: #bf00bf; stroke-linejoin: bevel"/>
     <use xlink:href="#m6857254ad2" x="191.456337" y="382.531006" style="fill: #bf00bf; stroke: #bf00bf; stroke-linejoin: bevel"/>
     <use xlink:href="#m6857254ad2" x="204.46333" y="384.466561" style="fill: #bf00bf; stroke: #bf00bf; stroke-linejoin: bevel"/>
     <use xlink:href="#m6857254ad2" x="217.470323" y="383.048138" style="fill: #bf00bf; stroke: #bf00bf; stroke-linejoin: bevel"/>
     <use xlink:href="#m6857254ad2" x="230.477316" y="383.283266" style="fill: #bf00bf; stroke: #bf00bf; stroke-linejoin: bevel"/>
     <use xlink:href="#m6857254ad2" x="243.484309" y="382.403024" style="fill: #bf00bf; stroke: #bf00bf; stroke-linejoin: bevel"/>
     <use xlink:href="#m6857254ad2" x="256.491302" y="383.189327" style="fill: #bf00bf; stroke: #bf00bf; stroke-linejoin: bevel"/>
     <use xlink:href="#m6857254ad2" x="269.498295" y="382.215173" style="fill: #bf00bf; stroke: #bf00bf; stroke-linejoin: bevel"/>
     <use xlink:href="#m6857254ad2" x="282.505288" y="381.045424" style="fill: #bf00bf; stroke: #bf00bf; stroke-linejoin: bevel"/>
     <use xlink:href="#m6857254ad2" x="295.512281" y="381.659045" style="fill: #bf00bf; stroke: #bf00bf; stroke-linejoin: bevel"/>
     <use xlink:href="#m6857254ad2" x="308.519274" y="384.092039" style="fill: #bf00bf; stroke: #bf00bf; stroke-linejoin: bevel"/>
     <use xlink:href="#m6857254ad2" x="321.526267" y="381.28823" style="fill: #bf00bf; stroke: #bf00bf; stroke-linejoin: bevel"/>
     <use xlink:href="#m6857254ad2" x="334.53326" y="383.3272" style="fill: #bf00bf; stroke: #bf00bf; stroke-linejoin: bevel"/>
     <use xlink:href="#m6857254ad2" x="347.540253" y="383.685282" style="fill: #bf00bf; stroke: #bf00bf; stroke-linejoin: bevel"/>
     <use xlink:href="#m6857254ad2" x="360.547247" y="383.115269" style="fill: #bf00bf; stroke: #bf00bf; stroke-linejoin: bevel"/>
     <use xlink:href="#m6857254ad2" x="373.55424" y="385.473893" style="fill: #bf00bf; stroke: #bf00bf; stroke-linejoin: bevel"/>
     <use xlink:href="#m6857254ad2" x="386.561233" y="383.351324" style="fill: #bf00bf; stroke: #bf00bf; stroke-linejoin: bevel"/>
     <use xlink:href="#m6857254ad2" x="399.568226" y="384.653603" style="fill: #bf00bf; stroke: #bf00bf; stroke-linejoin: bevel"/>
     <use xlink:href="#m6857254ad2" x="412.575219" y="381.635087" style="fill: #bf00bf; stroke: #bf00bf; stroke-linejoin: bevel"/>
     <use xlink:href="#m6857254ad2" x="425.582212" y="382.862682" style="fill: #bf00bf; stroke: #bf00bf; stroke-linejoin: bevel"/>
     <use xlink:href="#m6857254ad2" x="438.589205" y="382.528834" style="fill: #bf00bf; stroke: #bf00bf; stroke-linejoin: bevel"/>
     <use xlink:href="#m6857254ad2" x="451.596198" y="382.966049" style="fill: #bf00bf; stroke: #bf00bf; stroke-linejoin: bevel"/>
     <use xlink:href="#m6857254ad2" x="464.603191" y="383.424934" style="fill: #bf00bf; stroke: #bf00bf; stroke-linejoin: bevel"/>
     <use xlink:href="#m6857254ad2" x="477.610184" y="383.173025" style="fill: #bf00bf; stroke: #bf00bf; stroke-linejoin: bevel"/>
     <use xlink:href="#m6857254ad2" x="490.617177" y="382.569305" style="fill: #bf00bf; stroke: #bf00bf; stroke-linejoin: bevel"/>
     <use xlink:href="#m6857254ad2" x="503.62417" y="385.200082" style="fill: #bf00bf; stroke: #bf00bf; stroke-linejoin: bevel"/>
     <use xlink:href="#m6857254ad2" x="516.631163" y="385.708366" style="fill: #bf00bf; stroke: #bf00bf; stroke-linejoin: bevel"/>
     <use xlink:href="#m6857254ad2" x="529.638156" y="385.156348" style="fill: #bf00bf; stroke: #bf00bf; stroke-linejoin: bevel"/>
     <use xlink:href="#m6857254ad2" x="542.645149" y="380.965337" style="fill: #bf00bf; stroke: #bf00bf; stroke-linejoin: bevel"/>
     <use xlink:href="#m6857254ad2" x="555.652142" y="383.453398" style="fill: #bf00bf; stroke: #bf00bf; stroke-linejoin: bevel"/>
     <use xlink:href="#m6857254ad2" x="568.659135" y="385.211593" style="fill: #bf00bf; stroke: #bf00bf; stroke-linejoin: bevel"/>
     <use xlink:href="#m6857254ad2" x="581.666128" y="383.387422" style="fill: #bf00bf; stroke: #bf00bf; stroke-linejoin: bevel"/>
     <use xlink:href="#m6857254ad2" x="594.673121" y="385.279086" style="fill: #bf00bf; stroke: #bf00bf; stroke-linejoin: bevel"/>
     <use xlink:href="#m6857254ad2" x="607.680114" y="384.733635" style="fill: #bf00bf; stroke: #bf00bf; stroke-linejoin: bevel"/>
    </g>
   </g>
   <g id="patch_3">
    <path d="M 75.04375 417.945 
L 75.04375 29.865 
" style="fill: none; stroke: #000000; stroke-width: 2; stroke-linejoin: miter; stroke-linecap: square"/>
   </g>
   <g id="patch_4">
    <path d="M 633.04375 417.945 
L 633.04375 29.865 
" style="fill: none; stroke: #000000; stroke-width: 0.8; stroke-linejoin: miter; stroke-linecap: square"/>
   </g>
   <g id="patch_5">
    <path d="M 75.04375 417.945 
L 633.04375 417.945 
" style="fill: none; stroke: #000000; stroke-width: 2; stroke-linejoin: miter; stroke-linecap: square"/>
   </g>
   <g id="patch_6">
    <path d="M 75.04375 29.865 
L 633.04375 29.865 
" style="fill: none; stroke: #000000; stroke-width: 0.8; stroke-linejoin: miter; stroke-linecap: square"/>
   </g>
   <g id="text_17">
    <!-- Training Loss -->
    <g transform="translate(287.47375 23.865) scale(0.24 -0.24)">
     <use xlink:href="#TimesNewRomanPSMT-54"/>
     <use xlink:href="#TimesNewRomanPSMT-72" x="57.583984"/>
     <use xlink:href="#TimesNewRomanPSMT-61" x="90.884766"/>
     <use xlink:href="#TimesNewRomanPSMT-69" x="135.269531"/>
     <use xlink:href="#TimesNewRomanPSMT-6e" x="163.052734"/>
     <use xlink:href="#TimesNewRomanPSMT-69" x="213.052734"/>
     <use xlink:href="#TimesNewRomanPSMT-6e" x="240.835938"/>
     <use xlink:href="#TimesNewRomanPSMT-67" x="290.835938"/>
     <use xlink:href="#TimesNewRomanPSMT-20" x="340.835938"/>
     <use xlink:href="#TimesNewRomanPSMT-4c" x="365.835938"/>
     <use xlink:href="#TimesNewRomanPSMT-6f" x="426.919922"/>
     <use xlink:href="#TimesNewRomanPSMT-73" x="476.919922"/>
     <use xlink:href="#TimesNewRomanPSMT-73" x="515.835938"/>
    </g>
   </g>
   <g id="legend_1">
    <g id="patch_7">
     <path d="M 455.79375 187.255625 
L 619.04375 187.255625 
Q 623.04375 187.255625 623.04375 183.255625 
L 623.04375 43.865 
Q 623.04375 39.865 619.04375 39.865 
L 455.79375 39.865 
Q 451.79375 39.865 451.79375 43.865 
L 451.79375 183.255625 
Q 451.79375 187.255625 455.79375 187.255625 
z
" style="fill: #ffffff; opacity: 0.8; stroke: #cccccc; stroke-linejoin: miter"/>
    </g>
    <g id="line2d_34">
     <path d="M 459.79375 54.865 
L 479.79375 54.865 
L 499.79375 54.865 
" style="fill: none; stroke: #0000ff; stroke-width: 1.5; stroke-linecap: square"/>
     <g>
      <use xlink:href="#md3a97c4bca" x="479.79375" y="54.865" style="fill: #0000ff; stroke: #0000ff"/>
     </g>
    </g>
    <g id="text_18">
     <!-- MLP -->
     <g transform="translate(515.79375 61.865) scale(0.2 -0.2)">
      <defs>
       <path id="TimesNewRomanPSMT-4d" d="M 2619 0 
L 981 3566 
L 981 734 
Q 981 344 1066 247 
Q 1181 116 1431 116 
L 1581 116 
L 1581 0 
L 106 0 
L 106 116 
L 256 116 
Q 525 116 638 278 
Q 706 378 706 734 
L 706 3503 
Q 706 3784 644 3909 
Q 600 4000 483 4061 
Q 366 4122 106 4122 
L 106 4238 
L 1306 4238 
L 2844 922 
L 4356 4238 
L 5556 4238 
L 5556 4122 
L 5409 4122 
Q 5138 4122 5025 3959 
Q 4956 3859 4956 3503 
L 4956 734 
Q 4956 344 5044 247 
Q 5159 116 5409 116 
L 5556 116 
L 5556 0 
L 3756 0 
L 3756 116 
L 3906 116 
Q 4178 116 4288 278 
Q 4356 378 4356 734 
L 4356 3566 
L 2722 0 
L 2619 0 
z
" transform="scale(0.015625)"/>
       <path id="TimesNewRomanPSMT-50" d="M 1313 1984 
L 1313 750 
Q 1313 350 1400 253 
Q 1519 116 1759 116 
L 1922 116 
L 1922 0 
L 106 0 
L 106 116 
L 266 116 
Q 534 116 650 291 
Q 713 388 713 750 
L 713 3488 
Q 713 3888 628 3984 
Q 506 4122 266 4122 
L 106 4122 
L 106 4238 
L 1659 4238 
Q 2228 4238 2556 4120 
Q 2884 4003 3109 3725 
Q 3334 3447 3334 3066 
Q 3334 2547 2992 2222 
Q 2650 1897 2025 1897 
Q 1872 1897 1694 1919 
Q 1516 1941 1313 1984 
z
M 1313 2163 
Q 1478 2131 1606 2115 
Q 1734 2100 1825 2100 
Q 2150 2100 2386 2351 
Q 2622 2603 2622 3003 
Q 2622 3278 2509 3514 
Q 2397 3750 2190 3867 
Q 1984 3984 1722 3984 
Q 1563 3984 1313 3925 
L 1313 2163 
z
" transform="scale(0.015625)"/>
      </defs>
      <use xlink:href="#TimesNewRomanPSMT-4d"/>
      <use xlink:href="#TimesNewRomanPSMT-4c" x="88.916016"/>
      <use xlink:href="#TimesNewRomanPSMT-50" x="150"/>
     </g>
    </g>
    <g id="line2d_35">
     <path d="M 459.79375 83.143125 
L 479.79375 83.143125 
L 499.79375 83.143125 
" style="fill: none; stroke: #008000; stroke-width: 1.5; stroke-linecap: square"/>
     <g>
      <use xlink:href="#m923e46e4b5" x="479.79375" y="83.143125" style="fill: #008000; stroke: #008000; stroke-linejoin: miter"/>
     </g>
    </g>
    <g id="text_19">
     <!-- CNN -->
     <g transform="translate(515.79375 90.143125) scale(0.2 -0.2)">
      <defs>
       <path id="TimesNewRomanPSMT-43" d="M 3853 4334 
L 3950 2894 
L 3853 2894 
Q 3659 3541 3300 3825 
Q 2941 4109 2438 4109 
Q 2016 4109 1675 3895 
Q 1334 3681 1139 3212 
Q 944 2744 944 2047 
Q 944 1472 1128 1050 
Q 1313 628 1683 403 
Q 2053 178 2528 178 
Q 2941 178 3256 354 
Q 3572 531 3950 1056 
L 4047 994 
Q 3728 428 3303 165 
Q 2878 -97 2294 -97 
Q 1241 -97 663 684 
Q 231 1266 231 2053 
Q 231 2688 515 3219 
Q 800 3750 1298 4042 
Q 1797 4334 2388 4334 
Q 2847 4334 3294 4109 
Q 3425 4041 3481 4041 
Q 3566 4041 3628 4100 
Q 3709 4184 3744 4334 
L 3853 4334 
z
" transform="scale(0.015625)"/>
       <path id="TimesNewRomanPSMT-4e" d="M -84 4238 
L 1066 4238 
L 3656 1059 
L 3656 3503 
Q 3656 3894 3569 3991 
Q 3453 4122 3203 4122 
L 3056 4122 
L 3056 4238 
L 4531 4238 
L 4531 4122 
L 4381 4122 
Q 4113 4122 4000 3959 
Q 3931 3859 3931 3503 
L 3931 -69 
L 3819 -69 
L 1025 3344 
L 1025 734 
Q 1025 344 1109 247 
Q 1228 116 1475 116 
L 1625 116 
L 1625 0 
L 150 0 
L 150 116 
L 297 116 
Q 569 116 681 278 
Q 750 378 750 734 
L 750 3681 
Q 566 3897 470 3965 
Q 375 4034 191 4094 
Q 100 4122 -84 4122 
L -84 4238 
z
" transform="scale(0.015625)"/>
      </defs>
      <use xlink:href="#TimesNewRomanPSMT-43"/>
      <use xlink:href="#TimesNewRomanPSMT-4e" x="66.699219"/>
      <use xlink:href="#TimesNewRomanPSMT-4e" x="138.916016"/>
     </g>
    </g>
    <g id="line2d_36">
     <path d="M 459.79375 111.42125 
L 479.79375 111.42125 
L 499.79375 111.42125 
" style="fill: none; stroke: #ff0000; stroke-width: 1.5; stroke-linecap: square"/>
     <g>
      <use xlink:href="#m1120518d4b" x="479.79375" y="111.42125" style="fill: #ff0000; stroke: #ff0000; stroke-linejoin: miter"/>
     </g>
    </g>
    <g id="text_20">
     <!-- RNN -->
     <g transform="translate(515.79375 118.42125) scale(0.2 -0.2)">
      <defs>
       <path id="TimesNewRomanPSMT-52" d="M 4325 0 
L 3194 0 
L 1759 1981 
Q 1600 1975 1500 1975 
Q 1459 1975 1412 1976 
Q 1366 1978 1316 1981 
L 1316 750 
Q 1316 350 1403 253 
Q 1522 116 1759 116 
L 1925 116 
L 1925 0 
L 109 0 
L 109 116 
L 269 116 
Q 538 116 653 291 
Q 719 388 719 750 
L 719 3488 
Q 719 3888 631 3984 
Q 509 4122 269 4122 
L 109 4122 
L 109 4238 
L 1653 4238 
Q 2328 4238 2648 4139 
Q 2969 4041 3192 3777 
Q 3416 3513 3416 3147 
Q 3416 2756 3161 2468 
Q 2906 2181 2372 2063 
L 3247 847 
Q 3547 428 3762 290 
Q 3978 153 4325 116 
L 4325 0 
z
M 1316 2178 
Q 1375 2178 1419 2176 
Q 1463 2175 1491 2175 
Q 2097 2175 2405 2437 
Q 2713 2700 2713 3106 
Q 2713 3503 2464 3751 
Q 2216 4000 1806 4000 
Q 1625 4000 1316 3941 
L 1316 2178 
z
" transform="scale(0.015625)"/>
      </defs>
      <use xlink:href="#TimesNewRomanPSMT-52"/>
      <use xlink:href="#TimesNewRomanPSMT-4e" x="66.699219"/>
      <use xlink:href="#TimesNewRomanPSMT-4e" x="138.916016"/>
     </g>
    </g>
    <g id="line2d_37">
     <path d="M 459.79375 139.699375 
L 479.79375 139.699375 
L 499.79375 139.699375 
" style="fill: none; stroke: #00bfbf; stroke-width: 1.5; stroke-linecap: square"/>
     <g>
      <use xlink:href="#med1cc00ef8" x="479.79375" y="139.699375" style="fill: #00bfbf; stroke: #00bfbf; stroke-linejoin: miter"/>
     </g>
    </g>
    <g id="text_21">
     <!-- LSTM -->
     <g transform="translate(515.79375 146.699375) scale(0.2 -0.2)">
      <defs>
       <path id="TimesNewRomanPSMT-53" d="M 2934 4334 
L 2934 2869 
L 2819 2869 
Q 2763 3291 2617 3541 
Q 2472 3791 2203 3937 
Q 1934 4084 1647 4084 
Q 1322 4084 1109 3886 
Q 897 3688 897 3434 
Q 897 3241 1031 3081 
Q 1225 2847 1953 2456 
Q 2547 2138 2764 1967 
Q 2981 1797 3098 1565 
Q 3216 1334 3216 1081 
Q 3216 600 2842 251 
Q 2469 -97 1881 -97 
Q 1697 -97 1534 -69 
Q 1438 -53 1133 45 
Q 828 144 747 144 
Q 669 144 623 97 
Q 578 50 556 -97 
L 441 -97 
L 441 1356 
L 556 1356 
Q 638 900 775 673 
Q 913 447 1195 297 
Q 1478 147 1816 147 
Q 2206 147 2432 353 
Q 2659 559 2659 841 
Q 2659 997 2573 1156 
Q 2488 1316 2306 1453 
Q 2184 1547 1640 1851 
Q 1097 2156 867 2337 
Q 638 2519 519 2737 
Q 400 2956 400 3219 
Q 400 3675 750 4004 
Q 1100 4334 1641 4334 
Q 1978 4334 2356 4169 
Q 2531 4091 2603 4091 
Q 2684 4091 2736 4139 
Q 2788 4188 2819 4334 
L 2934 4334 
z
" transform="scale(0.015625)"/>
      </defs>
      <use xlink:href="#TimesNewRomanPSMT-4c"/>
      <use xlink:href="#TimesNewRomanPSMT-53" x="61.083984"/>
      <use xlink:href="#TimesNewRomanPSMT-54" x="116.699219"/>
      <use xlink:href="#TimesNewRomanPSMT-4d" x="177.783203"/>
     </g>
    </g>
    <g id="line2d_38">
     <path d="M 459.79375 167.9775 
L 479.79375 167.9775 
L 499.79375 167.9775 
" style="fill: none; stroke: #bf00bf; stroke-width: 1.5; stroke-linecap: square"/>
     <g>
      <use xlink:href="#m6857254ad2" x="479.79375" y="167.9775" style="fill: #bf00bf; stroke: #bf00bf; stroke-linejoin: bevel"/>
     </g>
    </g>
    <g id="text_22">
     <!-- Transformer -->
     <g transform="translate(515.79375 174.9775) scale(0.2 -0.2)">
      <defs>
       <path id="TimesNewRomanPSMT-66" d="M 1319 2638 
L 1319 756 
Q 1319 356 1406 250 
Q 1522 113 1716 113 
L 1975 113 
L 1975 0 
L 266 0 
L 266 113 
L 394 113 
Q 519 113 622 175 
Q 725 238 764 344 
Q 803 450 803 756 
L 803 2638 
L 247 2638 
L 247 2863 
L 803 2863 
L 803 3050 
Q 803 3478 940 3775 
Q 1078 4072 1361 4255 
Q 1644 4438 1997 4438 
Q 2325 4438 2600 4225 
Q 2781 4084 2781 3909 
Q 2781 3816 2700 3733 
Q 2619 3650 2525 3650 
Q 2453 3650 2373 3701 
Q 2294 3753 2178 3923 
Q 2063 4094 1966 4153 
Q 1869 4213 1750 4213 
Q 1606 4213 1506 4136 
Q 1406 4059 1362 3898 
Q 1319 3738 1319 3069 
L 1319 2863 
L 2056 2863 
L 2056 2638 
L 1319 2638 
z
" transform="scale(0.015625)"/>
       <path id="TimesNewRomanPSMT-6d" d="M 1050 2338 
Q 1363 2650 1419 2697 
Q 1559 2816 1721 2881 
Q 1884 2947 2044 2947 
Q 2313 2947 2506 2790 
Q 2700 2634 2766 2338 
Q 3088 2713 3309 2830 
Q 3531 2947 3766 2947 
Q 3994 2947 4170 2830 
Q 4347 2713 4450 2447 
Q 4519 2266 4519 1878 
L 4519 647 
Q 4519 378 4559 278 
Q 4591 209 4675 161 
Q 4759 113 4950 113 
L 4950 0 
L 3538 0 
L 3538 113 
L 3597 113 
Q 3781 113 3884 184 
Q 3956 234 3988 344 
Q 4000 397 4000 647 
L 4000 1878 
Q 4000 2228 3916 2372 
Q 3794 2572 3525 2572 
Q 3359 2572 3192 2489 
Q 3025 2406 2788 2181 
L 2781 2147 
L 2788 2013 
L 2788 647 
Q 2788 353 2820 281 
Q 2853 209 2943 161 
Q 3034 113 3253 113 
L 3253 0 
L 1806 0 
L 1806 113 
Q 2044 113 2133 169 
Q 2222 225 2256 338 
Q 2272 391 2272 647 
L 2272 1878 
Q 2272 2228 2169 2381 
Q 2031 2581 1784 2581 
Q 1616 2581 1450 2491 
Q 1191 2353 1050 2181 
L 1050 647 
Q 1050 366 1089 281 
Q 1128 197 1204 155 
Q 1281 113 1516 113 
L 1516 0 
L 100 0 
L 100 113 
Q 297 113 375 155 
Q 453 197 493 289 
Q 534 381 534 647 
L 534 1741 
Q 534 2213 506 2350 
Q 484 2453 437 2492 
Q 391 2531 309 2531 
Q 222 2531 100 2484 
L 53 2597 
L 916 2947 
L 1050 2947 
L 1050 2338 
z
" transform="scale(0.015625)"/>
       <path id="TimesNewRomanPSMT-65" d="M 681 1784 
Q 678 1147 991 784 
Q 1303 422 1725 422 
Q 2006 422 2214 576 
Q 2422 731 2563 1106 
L 2659 1044 
Q 2594 616 2278 264 
Q 1963 -88 1488 -88 
Q 972 -88 605 314 
Q 238 716 238 1394 
Q 238 2128 614 2539 
Q 991 2950 1559 2950 
Q 2041 2950 2350 2633 
Q 2659 2316 2659 1784 
L 681 1784 
z
M 681 1966 
L 2006 1966 
Q 1991 2241 1941 2353 
Q 1863 2528 1708 2628 
Q 1553 2728 1384 2728 
Q 1125 2728 920 2526 
Q 716 2325 681 1966 
z
" transform="scale(0.015625)"/>
      </defs>
      <use xlink:href="#TimesNewRomanPSMT-54"/>
      <use xlink:href="#TimesNewRomanPSMT-72" x="57.583984"/>
      <use xlink:href="#TimesNewRomanPSMT-61" x="90.884766"/>
      <use xlink:href="#TimesNewRomanPSMT-6e" x="135.269531"/>
      <use xlink:href="#TimesNewRomanPSMT-73" x="185.269531"/>
      <use xlink:href="#TimesNewRomanPSMT-66" x="224.185547"/>
      <use xlink:href="#TimesNewRomanPSMT-6f" x="257.486328"/>
      <use xlink:href="#TimesNewRomanPSMT-72" x="307.486328"/>
      <use xlink:href="#TimesNewRomanPSMT-6d" x="340.787109"/>
      <use xlink:href="#TimesNewRomanPSMT-65" x="418.570312"/>
      <use xlink:href="#TimesNewRomanPSMT-72" x="462.955078"/>
     </g>
    </g>
   </g>
  </g>
 </g>
 <defs>
  <clipPath id="p4f877a7fa9">
   <rect x="75.04375" y="29.865" width="558" height="388.08"/>
  </clipPath>
 </defs>
</svg>
